<?xml version="1.0" encoding="UTF-8" standalone="no"?>
<!-- Created with Inkscape (http://www.inkscape.org/) -->

<svg
   xmlns:dc="http://purl.org/dc/elements/1.1/"
   xmlns:cc="http://creativecommons.org/ns#"
   xmlns:rdf="http://www.w3.org/1999/02/22-rdf-syntax-ns#"
   xmlns:svg="http://www.w3.org/2000/svg"
   xmlns="http://www.w3.org/2000/svg"
   xmlns:sodipodi="http://sodipodi.sourceforge.net/DTD/sodipodi-0.dtd"
   xmlns:inkscape="http://www.inkscape.org/namespaces/inkscape"
   width="33mm"
   height="18.236mm"
   viewBox="0 0 33 18.236"
   version="1.1"
   id="svg4605"
   inkscape:version="0.92.4 (5da689c313, 2019-01-14)"
   sodipodi:docname="fancy.svg">
  <defs
     id="defs4599" />
  <sodipodi:namedview
     id="base"
     pagecolor="#ffffff"
     bordercolor="#666666"
     borderopacity="1.0"
     inkscape:pageopacity="0.0"
     inkscape:pageshadow="2"
     inkscape:zoom="0.35"
     inkscape:cx="-121.42857"
     inkscape:cy="560"
     inkscape:document-units="mm"
     inkscape:current-layer="layer1"
     showgrid="false"
     inkscape:window-width="1920"
     inkscape:window-height="1017"
     inkscape:window-x="-8"
     inkscape:window-y="-8"
     inkscape:window-maximized="1" />
  <metadata
     id="metadata4602">
    <rdf:RDF>
      <cc:Work
         rdf:about="">
        <dc:format>image/svg+xml</dc:format>
        <dc:type
           rdf:resource="http://purl.org/dc/dcmitype/StillImage" />
        <dc:title></dc:title>
      </cc:Work>
    </rdf:RDF>
  </metadata>
  <g
     inkscape:label="Calque 1"
     inkscape:groupmode="layer"
     id="layer1"
     transform="translate(0,-278.764)">
    <g
       transform="matrix(0.19120479,0,0,-0.19120479,-58.487343,379.80414)"
       id="g1152"
       inkscape:export-filename="D:\mes projets\portfolio-max\src\components\portfolio\assets\fancy.png"
       inkscape:export-xdpi="299.57687"
       inkscape:export-ydpi="299.57687">
      <g
         transform="translate(369.03918,458.4556)"
         id="g22">
        <path
           inkscape:connector-curvature="0"
           id="path24"
           style="fill:#000036;fill-opacity:1;fill-rule:nonzero;stroke:none"
           d="m 0,0 c 0,0 -19.674,-4.831 -19.674,-21.129 0,0 3.075,-4.921 6.766,0 0,0 5.843,-7.757 11.071,-2.187 0,0 7.072,-4.887 11.686,0.341 0,0 3.076,-4.612 8.303,1.23 0,0 2.459,-6.151 6.766,-0.307 V 3.165" />
      </g>
      <g
         transform="translate(418.87418,458.4556)"
         id="g26">
        <path
           inkscape:connector-curvature="0"
           id="path28"
           style="fill:#000036;fill-opacity:1;fill-rule:nonzero;stroke:none"
           d="m 0,0 c 0,0 19.675,-4.831 19.675,-21.129 0,0 -3.076,-4.921 -6.767,0 0,0 -5.843,-7.757 -11.071,-2.187 0,0 -7.071,-4.887 -11.686,0.341 0,0 -3.076,-4.612 -8.303,1.23 0,0 -2.459,-6.151 -6.765,-0.307 V 3.165" />
      </g>
      <g
         transform="translate(467.35948,488.27)"
         id="g30">
        <path
           inkscape:connector-curvature="0"
           id="path32"
           style="fill:#001240;fill-opacity:1;fill-rule:nonzero;stroke:none"
           d="M 0,0 C 0,0 -1.266,-8.501 -8.319,-10.323 H -47.04 c 0,0 -5.83,0 -7.12,9.109 v 27.857 c 0,0 -0.782,4.933 4.125,4.933 h 44.851 c 0,0 4.769,-3.036 5.184,-9.716 z m 3.807,40.169 h -63.248 c -6.921,0 -5.818,-6.956 -5.818,-6.956 V -6.071 c 1.82,-12.845 10.04,-12.845 10.04,-12.845 h 54.605 c 9.948,2.569 11.732,14.557 11.732,14.557 v 30.827 c -0.585,9.42 -7.311,13.701 -7.311,13.701" />
      </g>
      <g
         transform="translate(317.00648,510.1304)"
         id="g34">
        <path
           inkscape:connector-curvature="0"
           id="path36"
           style="fill:#001240;fill-opacity:1;fill-rule:nonzero;stroke:none"
           d="m 0,0 c 0.415,6.68 5.184,9.716 5.184,9.716 h 44.851 c 4.908,0 4.125,-4.933 4.125,-4.933 v -27.858 c -1.29,-9.108 -7.119,-9.108 -7.119,-9.108 H 8.319 C 1.265,-30.361 0,-21.86 0,-21.86 Z m -11.118,4.608 v -30.827 c 0,0 1.784,-11.989 11.732,-14.557 h 54.605 c 0,0 8.22,0 10.039,12.844 v 39.285 c 0,0 1.105,6.956 -5.816,6.956 H -3.807 c 0,0 -6.726,-4.282 -7.311,-13.701" />
      </g>
      <g
         transform="translate(377.56848,498.8965)"
         id="g38">
        <path
           inkscape:connector-curvature="0"
           id="path40"
           style="fill:#001240;fill-opacity:1;fill-rule:nonzero;stroke:none"
           d="m 0,0 c 0,0 14.972,11.841 26.07,0 l -0.064,-6.897 c 0,0 -16.196,12.463 -26.006,-2.95" />
      </g>
      <g
         transform="translate(409.97478,465.0034)"
         id="g42">
        <path
           inkscape:connector-curvature="0"
           id="path44"
           style="fill:#f4bb36;fill-opacity:1;fill-rule:nonzero;stroke:none"
           d="m 0,0 v 10.456 c -0.308,21.527 -8.918,22.581 -8.918,22.581 -2.634,1.605 -7.617,1.551 -9.602,1.459 -1.983,0.092 -6.966,0.146 -9.6,-1.459 0,0 -8.61,-1.054 -8.919,-22.581 V 0 c 0,0 -7.995,-2.439 -1.845,-8.6 0,0 3.749,-7.699 16.944,-7.699 h 2.566 1.709 2.567 C -1.904,-16.299 1.845,-8.6 1.845,-8.6 7.995,-2.439 0,0 0,0" />
      </g>
    </g>
  </g>
</svg>
