<?xml version="1.0" encoding="UTF-8" standalone="no"?>
<!-- Created with Inkscape (http://www.inkscape.org/) -->

<svg
   xmlns:dc="http://purl.org/dc/elements/1.1/"
   xmlns:cc="http://creativecommons.org/ns#"
   xmlns:rdf="http://www.w3.org/1999/02/22-rdf-syntax-ns#"
   xmlns:svg="http://www.w3.org/2000/svg"
   xmlns="http://www.w3.org/2000/svg"
   xmlns:sodipodi="http://sodipodi.sourceforge.net/DTD/sodipodi-0.dtd"
   xmlns:inkscape="http://www.inkscape.org/namespaces/inkscape"
   width="31mm"
   height="10.99mm"
   viewBox="0 0 31 10.99"
   version="1.1"
   id="svg4021"
   inkscape:version="0.92.4 (5da689c313, 2019-01-14)"
   sodipodi:docname="glasses.svg">
  <defs
     id="defs4015" />
  <sodipodi:namedview
     id="base"
     pagecolor="#ffffff"
     bordercolor="#666666"
     borderopacity="1.0"
     inkscape:pageopacity="0.0"
     inkscape:pageshadow="2"
     inkscape:zoom="0.35"
     inkscape:cx="-121.42857"
     inkscape:cy="560"
     inkscape:document-units="mm"
     inkscape:current-layer="layer1"
     showgrid="false"
     inkscape:window-width="1920"
     inkscape:window-height="1017"
     inkscape:window-x="-8"
     inkscape:window-y="-8"
     inkscape:window-maximized="1" />
  <metadata
     id="metadata4018">
    <rdf:RDF>
      <cc:Work
         rdf:about="">
        <dc:format>image/svg+xml</dc:format>
        <dc:type
           rdf:resource="http://purl.org/dc/dcmitype/StillImage" />
        <dc:title></dc:title>
      </cc:Work>
    </rdf:RDF>
  </metadata>
  <g
     inkscape:label="Calque 1"
     inkscape:groupmode="layer"
     id="layer1"
     transform="translate(0,-286.01)">
    <g
       id="g21612"
       transform="matrix(0.98302974,0,0,0.98302974,-57.737085,129.75976)"
       inkscape:export-xdpi="300"
       inkscape:export-ydpi="300"
       inkscape:export-filename="D:\mes projets\portfolio-max\src\components\portfolio\assets\glasses.png">
      <path
         sodipodi:nodetypes="ccccc"
         inkscape:connector-curvature="0"
         d="m 62.015065,168.28987 c -0.586402,-1.43018 -1.770369,-6.9388 -1.196261,-7.36613 1.350083,-1.00545 11.250767,-1.42357 11.605736,0.63346 0.354722,2.05698 -0.352387,5.92803 -1.706558,7.2153 -1.354192,1.28727 -8.203408,0.73484 -8.702917,-0.48263 z"
         style="fill:#513a26;fill-opacity:0.87288136;fill-rule:evenodd;stroke:none;stroke-width:0.06584527"
         id="path526-2-7" />
      <path
         sodipodi:nodetypes="ccccc"
         inkscape:connector-curvature="0"
         d="m 86.760919,168.59238 c 0.586402,-1.43018 1.770369,-6.9388 1.196261,-7.36613 -1.350084,-1.00545 -11.250768,-1.42357 -11.605736,0.63346 -0.354722,2.05698 0.352387,5.92803 1.706558,7.2153 1.354192,1.28727 8.203407,0.73484 8.702917,-0.48263 z"
         style="fill:#513a26;fill-opacity:0.87288136;fill-rule:evenodd;stroke:none;stroke-width:0.06584527"
         id="path526-2-7-4" />
      <path
         sodipodi:nodetypes="ccccccccccccccccccccccccccccc"
         inkscape:connector-curvature="0"
         d="m 86.828433,168.19986 c -0.46406,1.13197 -6.83288,1.64561 -8.0916,0.44874 -1.25932,-1.19687 -1.91682,-4.79606 -1.58686,-6.70859 0.32999,-1.91256 9.53581,-1.52381 10.79083,-0.58897 0.53387,0.39732 -0.5669,5.51908 -1.11237,6.84882 m -24.65381,0 c -0.54522,-1.32974 -1.64604,-6.4515 -1.11225,-6.84882 1.25527,-0.93484 10.46065,-1.32359 10.79069,0.58897 0.32981,1.91253 -0.32764,5.51172 -1.58671,6.70859 -1.25909,1.19687 -7.6273,0.68323 -8.09173,-0.44874 z m 20.22814,-9.23093 c -3.59735,0.101 -5.8056,1.68481 -7.80325,1.91317 l -0.1855,0.001 c -2.0004,-0.22469 -4.21029,-1.81338 -7.81376,-1.91439 -1.89928,-0.0538 -4.68679,-0.0814 -7.86644,0.89872 0.0392,0.49713 0.36329,2.48191 0.36329,2.48191 0,0 0.25181,-0.0122 0.56196,0.1213 0.3102,0.13224 0.80713,3.03412 1.27946,4.74769 0.47232,1.71298 0.77095,2.86454 5.24247,2.90678 4.47178,0.0416 4.94648,-0.49526 5.55301,-1.96336 0.67606,-1.63643 1.07565,-4.90135 2.6996,-5.0042 h 0.13276 c 1.62665,0.0991 2.02641,3.36655 2.70291,5.0042 0.60609,1.4681 1.08117,2.005 5.55276,1.96336 4.47159,-0.0422 4.77034,-1.1938 5.24235,-2.90678 0.47264,-1.71357 0.96974,-4.61545 1.27953,-4.74769 0.31039,-0.13276 0.56201,-0.1213 0.56201,-0.1213 0,0 0.32386,-1.98478 0.36305,-2.48191 -3.17983,-0.98013 -5.96723,-0.95259 -7.8663,-0.89872"
         style="fill:#000000;fill-opacity:1;fill-rule:evenodd;stroke:none;stroke-width:0.0612211"
         id="path526-2" />
    </g>
  </g>
</svg>
