<?xml version="1.0" encoding="UTF-8" standalone="no"?>
<!-- Created with Inkscape (http://www.inkscape.org/) -->

<svg
   xmlns:dc="http://purl.org/dc/elements/1.1/"
   xmlns:cc="http://creativecommons.org/ns#"
   xmlns:rdf="http://www.w3.org/1999/02/22-rdf-syntax-ns#"
   xmlns:svg="http://www.w3.org/2000/svg"
   xmlns="http://www.w3.org/2000/svg"
   xmlns:sodipodi="http://sodipodi.sourceforge.net/DTD/sodipodi-0.dtd"
   xmlns:inkscape="http://www.inkscape.org/namespaces/inkscape"
   width="59.200001mm"
   height="83.800003mm"
   viewBox="0 0 59.200001 83.800003"
   version="1.1"
   id="svg5245"
   inkscape:version="0.92.4 (5da689c313, 2019-01-14)"
   sodipodi:docname="head-cartoon.svg">
  <defs
     id="defs5239">
    <clipPath
       clipPathUnits="userSpaceOnUse"
       id="clipPath726-7-7-9-2-8-4-5-8-0-5">
      <path
         d="m 320.808,311.819 h 18.493 v -6.138 h -18.493 z"
         id="path724-4-4-5-6-7-8-7-4-6-2"
         inkscape:connector-curvature="0" />
    </clipPath>
    <clipPath
       clipPathUnits="userSpaceOnUse"
       id="clipPath778-1-3-4-4-9-2-4-8-0-4">
      <path
         d="m 333.768,336.042 h 10.814 v -10.814 h -10.814 z"
         id="path776-0-1-2-4-0-7-4-3-5-8"
         inkscape:connector-curvature="0" />
    </clipPath>
    <clipPath
       clipPathUnits="userSpaceOnUse"
       id="clipPath794-0-4-7-7-0-2-5-9-8-6">
      <path
         d="m 304.83,335.128 h 10.813 V 324.313 H 304.83 Z"
         id="path792-9-2-1-9-0-7-9-1-8-9"
         inkscape:connector-curvature="0" />
    </clipPath>
  </defs>
  <sodipodi:namedview
     id="base"
     pagecolor="#ffffff"
     bordercolor="#666666"
     borderopacity="1.0"
     inkscape:pageopacity="0.0"
     inkscape:pageshadow="2"
     inkscape:zoom="0.98994949"
     inkscape:cx="306.44828"
     inkscape:cy="316.52561"
     inkscape:document-units="mm"
     inkscape:current-layer="layer1"
     showgrid="false"
     inkscape:window-width="1920"
     inkscape:window-height="1017"
     inkscape:window-x="-8"
     inkscape:window-y="-8"
     inkscape:window-maximized="1" />
  <metadata
     id="metadata5242">
    <rdf:RDF>
      <cc:Work
         rdf:about="">
        <dc:format>image/svg+xml</dc:format>
        <dc:type
           rdf:resource="http://purl.org/dc/dcmitype/StillImage" />
        <dc:title></dc:title>
      </cc:Work>
    </rdf:RDF>
  </metadata>
  <g
     inkscape:label="Calque 1"
     inkscape:groupmode="layer"
     id="layer1"
     transform="translate(0,-213.2)">
    <g
       id="g2835"
       transform="matrix(1.4034072,0,0,1.4034072,-37.685825,-27.543553)"
       inkscape:export-filename="D:\mes projets\portfolio-max\src\components\portfolio\assets\head-cartoon.png"
       inkscape:export-xdpi="300"
       inkscape:export-ydpi="300">
      <path
         d="m 65.85492,197.55961 c -0.90555,-0.0442 -1.69528,0.41891 -2.25393,0.88936 l -0.10881,-0.19072 c -5.30695,-5.81994 -6.09668,-18.09153 -6.09668,-18.09153 0,0 -4.29669,2.32208 -10.95846,3.22616 -6.13412,0.82979 -8.63316,-0.19139 -9.16608,-1.27146 -2.07477,1.60203 -3.82429,1.4848 -3.81966,1.51585 0,0 0.33919,6.55549 0.33226,9.63519 -0.0174,7.72728 -3.22184,8.82406 -0.58173,14.75147 2.03581,4.57065 3.77196,9.12687 9.98388,10.71418 l 0.0135,1.0948 0.006,1.23398 0.0257,3.00533 c 0,0 1.32966,3.04949 4.86295,2.99127 0.10881,0 0.22581,-0.007 0.34748,-0.0147 3.78308,-0.27169 5.55616,-2.97655 5.55616,-2.97655 0,0 -0.0766,-1.67498 -0.0766,-3.52663 0,-0.98504 0.0187,-2.02028 0.0825,-2.88086 5.53743,-2.89491 8.13241,-8.5529 8.13241,-8.5529 4.38176,2.28566 8.07194,-5.36831 6.55238,-9.56071 -0.69987,-1.91992 -1.9591,-1.95403 -2.83365,-1.99151 z"
         style="fill:#f2cabb;fill-opacity:1;fill-rule:nonzero;stroke:none;stroke-width:0.62567031"
         id="path682-2-4-6-1-60-1-03-6-4-6"
         inkscape:connector-curvature="0"
         sodipodi:nodetypes="cccccccsscccccccscccc" />
      <g
         inkscape:export-ydpi="300"
         inkscape:export-xdpi="300"
         style="fill:#57433c;fill-opacity:1"
         transform="matrix(0.58498158,0,0,-0.66918919,65.63742,183.84165)"
         id="g692-4-7-9-9-3-9-5-6-9-2">
        <path
           sodipodi:nodetypes="cccccccccsccccccc"
           inkscape:connector-curvature="0"
           id="path694-6-3-8-3-2-9-7-6-2-1"
           style="fill:#57433c;fill-opacity:1;fill-rule:nonzero;stroke:none"
           d="m 0,0 c 4.063,-8.883 0.384,-20.19321 0.384,-20.19321 l -0.012,-0.307 c -1.548,0.066 -2.898,-0.626 -3.853,-1.328 l -3.412753,-2.935107 C -15.965753,-16.066317 -14.089,1.538 -14.089,1.538 c 0,0 -7.346,-3.471 -18.733,-4.821 -10.487,-1.24 -14.758,0.286 -15.669,1.9 0,0 -0.077,0.132 0,0 -3.031,-1.439 -7.765,-2.878 -11.31,-2.878 -2.176,0 -3.899,0.539 -4.504,1.945 -1.043,2.393 0.78,3.557 2.593,3.92 -2.273,1.032 -5.008,3.085 -4.525,4.765 0.78,2.702 4.634,1.548 7.918,1.932 3.294,0.385 15.451,10.817 29.747,10.037 14.285,-0.769 17.569,-12.55 17.569,-12.55 0,0 7.873,1.054 11.003,-5.788" />
      </g>
      <g
         inkscape:export-ydpi="300"
         inkscape:export-xdpi="300"
         transform="matrix(0.58498158,0,0,-0.66918919,-144.48063,426.33109)"
         id="g720-32-6-4-5-1-2-0-0-6-8">
        <g
           id="g722-1-9-4-5-4-7-4-6-4-8" />
        <g
           id="g734-8-1-2-4-3-1-0-3-9-5">
          <g
             style="opacity:0.10000598"
             id="g732-9-0-2-5-0-9-1-2-9-0"
             clip-path="url(#clipPath726-7-7-9-2-8-4-5-8-0-5)">
            <g
               id="g730-1-1-1-7-0-1-0-6-7-1"
               transform="translate(339.2432,310.9707)">
              <path
                 inkscape:connector-curvature="0"
                 id="path728-4-9-4-9-4-6-6-8-5-9"
                 style="fill:#650e81;fill-opacity:1;fill-rule:nonzero;stroke:none"
                 d="m 0,0 c 0.018,0.291 0.034,0.578 0.058,0.849 -3.449,-1.571 -7.555,-2.592 -12.364,-2.472 -1.768,0.045 -4.089,0.407 -6.13,0.868 l 0.023,-1.636 0.012,-1.844 0.011,-0.956 C -11.87,-5.724 -5.254,-4.127 0,0" />
            </g>
          </g>
        </g>
      </g>
      <g
         inkscape:export-ydpi="300"
         inkscape:export-xdpi="300"
         transform="matrix(0.58498158,0,0,-0.66918919,40.85357,198.49318)"
         id="g756-6-7-8-7-6-2-4-5-6-8">
        <path
           inkscape:connector-curvature="0"
           id="path758-9-8-5-0-2-5-5-1-8-28"
           style="fill:#1e120d;fill-opacity:1;fill-rule:nonzero;stroke:none"
           d="m 0,0 c 0,1.6 -1.296,2.896 -2.896,2.896 -1.6,0 -2.897,-1.296 -2.897,-2.896 0,-1.6 1.297,-2.897 2.897,-2.897 C -1.296,-2.897 0,-1.6 0,0" />
      </g>
      <g
         inkscape:export-ydpi="300"
         inkscape:export-xdpi="300"
         transform="matrix(0.58498158,0,0,-0.66918919,52.4198,198.12859)"
         id="g760-1-2-2-3-3-7-7-7-4-3">
        <path
           inkscape:connector-curvature="0"
           id="path762-8-0-4-1-1-9-9-6-2-93"
           style="fill:#1e120d;fill-opacity:1;fill-rule:nonzero;stroke:none"
           d="m 0,0 c 0,1.6 -1.297,2.896 -2.896,2.896 -1.6,0 -2.897,-1.296 -2.897,-2.896 0,-1.6 1.297,-2.896 2.897,-2.896 C -1.297,-2.896 0,-1.6 0,0" />
      </g>
      <g
         inkscape:export-ydpi="300"
         inkscape:export-xdpi="300"
         transform="matrix(0.7000712,-0.06089863,-0.16165499,-0.56832958,48.54608,193.84421)"
         id="g764-2-8-4-7-7-9-2-5-1-3">
        <path
           inkscape:connector-curvature="0"
           id="path766-1-9-3-5-0-2-1-1-9-6"
           style="fill:#6b4132;fill-opacity:1;fill-rule:nonzero;stroke:none"
           d="M 0,0 C 1.681,1.601 7.165,-0.494 7.242,-3.171 7.3,-5.246 4.647,-3.798 2.709,-3.128 1.604,-2.745 -1.722,-1.64 0,0" />
      </g>
      <g
         inkscape:export-ydpi="300"
         inkscape:export-xdpi="300"
         transform="matrix(0.64723876,0.0517005,0.13660941,-0.50318752,41.05863,193.83353)"
         id="g768-5-6-3-2-2-8-7-6-2-5">
        <path
           inkscape:connector-curvature="0"
           id="path770-2-6-9-4-1-4-49-5-7-7"
           style="fill:#6b4132;fill-opacity:1;fill-rule:nonzero;stroke:none"
           d="m 0,0 c -1.602,1.682 -7.182,-0.144 -7.388,-2.813 -0.16,-2.069 2.559,-0.752 4.53,-0.178 C -1.737,-2.663 1.638,-1.722 0,0" />
      </g>
      <g
         inkscape:export-ydpi="300"
         inkscape:export-xdpi="300"
         transform="matrix(0.46615351,0,0,-0.53325592,-104.9804,379.9612)"
         id="g772-48-5-8-8-5-1-9-5-0-4">
        <g
           id="g774-2-2-0-6-89-3-8-3-4-5" />
        <g
           id="g786-3-3-5-9-6-9-4-2-7-2">
          <g
             style="opacity:0.30000299"
             id="g784-5-7-3-0-9-2-3-0-5-2"
             clip-path="url(#clipPath778-1-3-4-4-9-2-4-8-0-4)">
            <g
               id="g782-6-8-2-2-6-1-1-2-2-52"
               transform="translate(344.582,330.6343)">
              <path
                 inkscape:connector-curvature="0"
                 id="path780-7-1-7-4-2-2-1-2-2-4"
                 style="fill:#db737a;fill-opacity:1;fill-rule:nonzero;stroke:none"
                 d="m 0,0 c 0,2.987 -2.421,5.408 -5.407,5.408 -2.986,0 -5.407,-2.421 -5.407,-5.408 0,-2.986 2.421,-5.407 5.407,-5.407 C -2.421,-5.407 0,-2.986 0,0" />
            </g>
          </g>
        </g>
      </g>
      <g
         inkscape:export-ydpi="300"
         inkscape:export-xdpi="300"
         transform="matrix(0.43049195,0,0,-0.49246091,-96.40165,366.45741)"
         id="g788-1-9-9-1-1-2-3-5-1-2">
        <g
           id="g790-1-2-3-5-5-4-1-3-4-6" />
        <g
           id="g802-0-1-1-8-5-4-1-9-2-05">
          <g
             style="opacity:0.30000299"
             id="g800-3-2-3-1-7-0-4-3-7-3"
             clip-path="url(#clipPath794-0-4-7-7-0-2-5-9-8-6)">
            <g
               id="g798-6-7-3-7-24-9-3-3-8-0"
               transform="translate(315.6426,329.7207)">
              <path
                 inkscape:connector-curvature="0"
                 id="path796-1-3-7-1-4-2-0-3-0-4"
                 style="fill:#db737a;fill-opacity:1;fill-rule:nonzero;stroke:none"
                 d="m 0,0 c 0,2.987 -2.421,5.407 -5.406,5.407 -2.985,0 -5.407,-2.42 -5.407,-5.407 0,-2.986 2.422,-5.408 5.407,-5.408 C -2.421,-5.408 0,-2.986 0,0" />
            </g>
          </g>
        </g>
      </g>
      <g
         inkscape:export-ydpi="300"
         inkscape:export-xdpi="300"
         transform="matrix(0.51822903,0.27137082,0.31043442,-0.59282767,67.10518,202.40195)"
         id="g804-0-7-1-7-5-9-06-3-4-68">
        <path
           inkscape:connector-curvature="0"
           id="path806-4-5-8-2-93-0-8-7-1-3"
           style="fill:#ce8d7e;fill-opacity:1;fill-rule:nonzero;stroke:none"
           d="M 0,0 C -0.002,0.011 -0.087,0.121 -0.275,0.352 -0.454,0.578 -0.749,0.874 -1.118,1.172 -1.491,1.468 -1.958,1.74 -2.49,1.889 -2.757,1.963 -3.038,2.003 -3.329,2.019 -3.6,2.041 -3.969,1.988 -4.179,1.965 -4.34,1.922 -4.562,1.89 -4.673,1.839 -4.787,1.779 -4.89,1.771 -5.02,1.687 -5.272,1.558 -5.521,1.407 -5.737,1.215 -6.183,0.847 -6.548,0.4 -6.839,-0.006 -7.127,-0.415 -7.354,-0.782 -7.491,-1.047 -7.629,-1.306 -7.708,-1.455 -7.708,-1.455 L -7.72,-1.476 c -0.103,-0.194 -0.344,-0.269 -0.54,-0.165 -0.151,0.08 -0.229,0.245 -0.208,0.406 0,0 0.028,0.203 0.114,0.526 0.095,0.32 0.23,0.782 0.489,1.305 0.129,0.261 0.279,0.544 0.479,0.822 0.196,0.28 0.415,0.577 0.702,0.839 0.275,0.272 0.604,0.526 0.975,0.731 0.168,0.112 0.419,0.191 0.631,0.28 0.222,0.083 0.362,0.099 0.548,0.152 0.501,0.085 0.851,0.101 1.29,0.074 0.417,-0.023 0.824,-0.122 1.2,-0.257 C -1.663,3.103 -1.327,2.911 -1.031,2.708 -0.74,2.497 -0.491,2.272 -0.287,2.045 0.126,1.596 0.358,1.151 0.515,0.846 0.593,0.691 0.637,0.562 0.671,0.471 0.702,0.38 0.719,0.331 0.719,0.331 L 0.754,0.225 C 0.823,0.019 0.712,-0.205 0.506,-0.274 0.3,-0.343 0.077,-0.232 0.008,-0.026 0.005,-0.018 0.002,-0.008 0,0" />
      </g>
      <g
         inkscape:export-ydpi="300"
         inkscape:export-xdpi="300"
         transform="matrix(0.58239508,0.05494927,0.06285918,-0.66623036,39.39738,208.86094)"
         id="g808-1-2-4-8-8-6-1-0-0-4">
        <path
           inkscape:connector-curvature="0"
           id="path810-4-8-5-1-2-5-47-9-4-8"
           style="fill:#1e120d;fill-opacity:1;fill-rule:nonzero;stroke:none"
           d="m 0,0 c 0.003,-0.005 0.055,-0.074 0.153,-0.184 0.109,-0.121 0.278,-0.295 0.504,-0.507 0.228,-0.211 0.514,-0.46 0.873,-0.705 0.354,-0.251 0.773,-0.51 1.244,-0.759 0.471,-0.252 1.006,-0.482 1.588,-0.674 0.583,-0.191 1.209,-0.363 1.871,-0.484 0.328,-0.076 0.668,-0.117 1.015,-0.152 0.345,-0.047 0.693,-0.093 1.051,-0.099 0.71,-0.062 1.439,-0.023 2.168,-0.019 0.742,0.033 1.428,0.114 2.116,0.254 0.687,0.132 1.347,0.323 1.959,0.57 1.231,0.479 2.274,1.172 3.044,1.905 0.776,0.727 1.322,1.45 1.644,1.986 0.331,0.534 0.466,0.865 0.458,0.844 0.075,0.235 0.326,0.367 0.562,0.294 0.236,-0.074 0.368,-0.326 0.294,-0.562 0,0 -0.03,-0.104 -0.089,-0.298 -0.06,-0.183 -0.15,-0.448 -0.301,-0.768 -0.3,-0.635 -0.79,-1.533 -1.619,-2.433 -0.824,-0.894 -1.971,-1.802 -3.373,-2.431 -0.7,-0.311 -1.453,-0.558 -2.231,-0.736 C 12.154,-5.127 11.326,-5.232 10.55,-5.273 9.758,-5.3 8.965,-5.31 8.182,-5.239 c -0.392,0.015 -0.78,0.066 -1.161,0.128 -0.382,0.055 -0.758,0.117 -1.124,0.215 -1.473,0.322 -2.78,0.922 -3.806,1.563 -1.038,0.636 -1.75,1.38 -2.208,1.919 -0.232,0.271 -0.385,0.511 -0.49,0.675 -0.111,0.179 -0.158,0.272 -0.155,0.267 l -0.003,0.006 C -0.874,-0.244 -0.782,0.026 -0.56,0.136 -0.361,0.233 -0.127,0.171 0,0" />
      </g>
      <g
         inkscape:export-ydpi="300"
         inkscape:export-xdpi="300"
         transform="matrix(-1,0,0,1,120.44674,34.60315)"
         id="g21540-7-1-2-0">
        <g
           id="g828-9-1-8-6-6-9-3-2-9-3"
           transform="matrix(-0.58498158,0,0,-0.66918919,74.857263,172.57354)"
           style="fill:#1e120d;fill-opacity:1">
          <path
             d="M 0,0 C -0.249,0.088 1.359,1.777 1.815,1.53 2.188,1.327 0.887,-0.312 0,0"
             style="fill:#1e120d;fill-opacity:1;fill-rule:nonzero;stroke:none"
             id="path830-5-5-6-9-6-5-11-1-0-3"
             inkscape:connector-curvature="0" />
        </g>
        <g
           id="g832-0-6-4-8-4-7-42-4-8-8"
           transform="matrix(-0.58254918,0.05329074,-0.06096189,-0.66640665,76.488062,159.35477)"
           style="fill:#1e120d;fill-opacity:1">
          <path
             d="m 1.5547946,-1.100536 c -0.301,-2.102 -0.70499998,-4.905 -1.10799998,-7.7079996 -0.206,-1.3980004 -0.39699996,-2.7990004 -0.52799996,-4.1080004 C -0.14620534,-13.569536 -2.241,-16.617 -2.248,-17.194 c -0.011,-0.258 0.027,-0.635 0.054,-0.605 0.092,-0.128 0.169,-0.199 0.237,-0.27 0.089,-0.075 0.176,-0.155 0.275,-0.219 0.786,-0.538 1.662,-0.727 2.239,-0.826 0.589,-0.099 0.932,-0.1 0.932,-0.1 0.146,-0.001 0.263,-0.119 0.263,-0.265 -0.001,-0.136 -0.105,-0.247 -0.237,-0.261 l -0.022,-0.002 c 0,0 -0.37,-0.035 -1.013,0.021 -0.32,0.031 -0.709,0.084 -1.152,0.195 -0.437,0.118 -0.941,0.268 -1.442,0.593 -0.127,0.076 -0.247,0.173 -0.372,0.273 -0.132,0.119 -0.258,0.246 -0.337,0.348 l -0.035,0.041 c -0.036,0.041 -0.049,0.072 -0.073,0.11 -0.048,0.085 -0.05,0.122 -0.075,0.184 -0.028,0.102 -0.044,0.192 -0.056,0.278 -0.021,0.17 -0.034,0.333 -0.038,0.493 -0.016,0.642 2.0397947,3.702464 2.0927947,4.373464 0.11299996,1.339 0.28499996,2.751 0.47099996,4.1620004 0.402,2.8159996 0.88499996,5.6139996 1.30199996,7.70299957 C 1.1747946,1.122464 1.8377946,1.007464 1.5547946,-1.100536 Z"
             style="fill:#1e120d;fill-opacity:1;fill-rule:nonzero;stroke:none"
             id="path834-5-4-6-6-6-2-6-0-8-3"
             inkscape:connector-curvature="0"
             sodipodi:nodetypes="cccccccccccccccccccccccccc" />
        </g>
      </g>
      <g
         inkscape:export-ydpi="300"
         inkscape:export-xdpi="300"
         transform="matrix(0.58498158,0,0,-0.66918919,60.18693,179.01652)"
         id="g836-7-6-7-0-7-9-6-6-2-6">
        <path
           inkscape:connector-curvature="0"
           id="path838-8-6-3-7-9-5-7-5-9-5"
           style="fill:#845440;fill-opacity:1;fill-rule:nonzero;stroke:none"
           d="M 0,0 C -0.184,0.521 4.151,3.026 4.677,1.234 5.331,-0.997 0.187,-0.522 0,0" />
      </g>
      <g
         inkscape:export-ydpi="300"
         inkscape:export-xdpi="300"
         transform="matrix(0.58498158,0,0,-0.66918919,59.74933,178.14049)"
         id="g840-2-8-6-7-5-0-6-0-0-9">
        <path
           inkscape:connector-curvature="0"
           id="path842-4-4-0-6-5-0-8-1-9-7"
           style="fill:#845440;fill-opacity:1;fill-rule:nonzero;stroke:none"
           d="M 0,0 C -0.794,-0.007 0.604,6.377 2.898,6.09 5.192,5.804 1.903,0.018 0,0" />
      </g>
      <g
         inkscape:export-ydpi="300"
         inkscape:export-xdpi="300"
         transform="matrix(0.58498158,0,0,-0.66918919,57.45682,182.9715)"
         id="g844-0-8-2-4-0-4-4-4-7-4">
        <path
           inkscape:connector-curvature="0"
           id="path846-4-2-2-6-7-4-3-9-6-6"
           style="fill:#683d2d;fill-opacity:1;fill-rule:nonzero;stroke:none"
           d="m 0,0 c 0,0 -0.289,-0.13 -0.83,-0.373 -0.547,-0.246 -1.354,-0.561 -2.39,-0.954 -1.038,-0.381 -2.307,-0.823 -3.785,-1.262 -0.731,-0.244 -1.527,-0.441 -2.363,-0.663 -0.837,-0.216 -1.715,-0.456 -2.648,-0.631 -0.929,-0.186 -1.894,-0.403 -2.9,-0.587 -1.011,-0.155 -2.057,-0.315 -3.131,-0.479 -2.151,-0.309 -4.435,-0.532 -6.823,-0.577 -2.379,-0.021 -4.876,0.025 -7.363,0.788 -0.621,0.186 -1.235,0.47 -1.813,0.863 -0.285,0.205 -0.563,0.45 -0.785,0.774 -0.112,0.163 -0.214,0.335 -0.273,0.543 l -0.05,0.149 c -0.007,0.036 -10e-4,-0.027 -0.019,0.09 l -0.003,0.029 -0.007,0.058 c -0.013,0.042 -0.006,0.256 0.017,0.389 0.117,0.481 0.395,0.793 0.658,1.042 0.273,0.248 0.564,0.441 0.863,0.609 0.622,0.321 1.192,0.598 2.031,0.636 0.114,-0.005 0.238,-0.004 0.429,-0.09 0.075,-0.023 0.223,-0.136 0.293,-0.249 0.088,-0.145 0.116,-0.297 0.101,-0.404 -0.064,-0.428 -0.224,-0.53 -0.337,-0.696 -0.254,-0.29 -0.489,-0.484 -0.77,-0.713 -0.238,-0.183 -0.534,-0.386 -0.817,-0.555 -0.279,-0.171 -0.564,-0.324 -0.848,-0.475 -1.144,-0.586 -2.318,-1.061 -3.5,-1.479 -2.368,-0.82 -4.771,-1.428 -7.168,-1.655 -1.196,-0.112 -2.401,-0.116 -3.572,0.13 -1.142,0.235 -2.381,0.868 -2.841,2.07 -0.094,0.238 -0.185,0.525 -0.239,0.827 -0.042,0.291 -0.063,0.591 -0.011,0.887 0.079,0.601 0.421,1.133 0.841,1.496 0.86,0.729 1.894,0.985 2.853,1.109 0.485,0.053 0.965,0.061 1.438,0.004 0.238,-0.036 0.473,-0.077 0.714,-0.19 0.115,-0.057 0.254,-0.138 0.347,-0.321 0.033,-0.103 0.043,-0.217 0.006,-0.303 l -0.024,-0.067 c -0.052,-0.089 -0.029,-0.043 -0.048,-0.071 l -0.05,-0.063 c -0.332,-0.257 -0.552,-0.186 -0.786,-0.187 -0.225,0.021 -0.436,0.066 -0.639,0.121 -0.405,0.111 -0.782,0.255 -1.139,0.409 -1.42,0.631 -2.543,1.397 -3.377,2.127 -0.831,0.732 -1.347,1.48 -1.49,2.064 -0.162,0.586 0.021,0.904 -0.005,0.899 -10e-4,0 -0.002,-0.001 -0.002,-0.002 0,-0.002 0.002,-0.003 0.003,-0.002 l 0.009,10e-4 c 0.024,0.005 -0.143,-0.317 0.04,-0.883 0.162,-0.564 0.696,-1.276 1.543,-1.962 0.847,-0.684 1.99,-1.396 3.398,-1.953 0.352,-0.137 0.722,-0.26 1.107,-0.349 0.191,-0.044 0.386,-0.076 0.578,-0.086 0.176,-0.028 0.419,0.047 0.434,0.056 0.241,0.094 -0.271,0.276 -0.672,0.31 -0.425,0.039 -0.874,0.022 -1.325,-0.039 -0.888,-0.133 -1.846,-0.42 -2.532,-1.042 -0.72,-0.614 -0.807,-1.626 -0.365,-2.562 0.36,-0.874 1.335,-1.391 2.383,-1.58 1.059,-0.189 2.2,-0.175 3.346,-0.054 2.298,0.246 4.648,0.87 6.945,1.699 1.145,0.421 2.284,0.9 3.363,1.472 0.553,0.302 1.028,0.577 1.521,0.966 0.202,0.17 0.449,0.383 0.604,0.572 0.079,0.076 0.131,0.232 0.105,0.119 0.002,-0.025 0.003,-0.105 0.054,-0.179 0.023,-0.057 0.113,-0.106 0.112,-0.106 0.049,-0.02 0.012,-0.002 -0.03,-0.007 -0.423,-0.018 -1.045,-0.257 -1.523,-0.522 -0.486,-0.258 -0.972,-0.685 -1.031,-0.98 -0.018,-0.062 0.04,-0.316 0.182,-0.494 0.129,-0.191 0.323,-0.369 0.544,-0.526 0.45,-0.304 0.975,-0.559 1.54,-0.726 2.262,-0.699 4.716,-0.766 7.033,-0.74 2.327,0.054 4.59,0.248 6.721,0.518 1.064,0.147 2.1,0.291 3.101,0.43 0.996,0.168 1.952,0.369 2.874,0.541 0.925,0.158 1.795,0.387 2.627,0.584 0.832,0.196 1.626,0.367 2.355,0.586 1.475,0.392 2.742,0.79 3.781,1.137 1.033,0.358 1.846,0.648 2.381,0.871 0.542,0.223 0.83,0.342 0.83,0.342 l 0.01,0.005 C -0.074,0.54 0.08,0.476 0.136,0.341 0.19,0.209 0.129,0.058 0,0" />
      </g>
    </g>
  </g>
</svg>
