<?xml version="1.0" encoding="UTF-8" standalone="no"?>
<!-- Created with Inkscape (http://www.inkscape.org/) -->

<svg
   xmlns:dc="http://purl.org/dc/elements/1.1/"
   xmlns:cc="http://creativecommons.org/ns#"
   xmlns:rdf="http://www.w3.org/1999/02/22-rdf-syntax-ns#"
   xmlns:svg="http://www.w3.org/2000/svg"
   xmlns="http://www.w3.org/2000/svg"
   xmlns:sodipodi="http://sodipodi.sourceforge.net/DTD/sodipodi-0.dtd"
   xmlns:inkscape="http://www.inkscape.org/namespaces/inkscape"
   width="40.612mm"
   height="30mm"
   viewBox="0 0 40.612 30"
   version="1.1"
   id="svg5925"
   inkscape:version="0.92.4 (5da689c313, 2019-01-14)"
   sodipodi:docname="helmet.svg">
  <defs
     id="defs5919" />
  <g
     id="g856">
    <path
       sodipodi:nodetypes="cccc"
       inkscape:connector-curvature="0"
       id="path841"
       d="m 39.512393,6.828987 c -1.072599,4.121883 -1.718948,8.861661 -7.596909,10.520796 l 2.129558,6.719528 c 3.550696,-2.912076 7.951274,-5.184886 5.467351,-17.240324 z"
       style="fill:#e8e4cc;fill-opacity:1;stroke:none;stroke-width:0.26458332px;stroke-linecap:butt;stroke-linejoin:miter;stroke-opacity:1" />
    <path
       sodipodi:nodetypes="cccc"
       inkscape:connector-curvature="0"
       id="path839"
       d="M 4.5512429,0.13137701 C 3.3228452,5.0672322 3.0732554,9.6185558 7.0870534,12.494977 l -4.11368,5.46119 C -0.29615571,14.505358 -2.1362364,10.116473 4.5512429,0.13137701 Z"
       style="fill:#e8e4cc;stroke:none;stroke-width:0.26458332px;stroke-linecap:butt;stroke-linejoin:miter;stroke-opacity:1;fill-opacity:1" />
    <path
       sodipodi:nodetypes="cscc"
       inkscape:connector-curvature="0"
       id="path837"
       d="m 34.632068,27.30692 c 0,0 -0.155242,-16.114951 -12.899715,-18.4546215 C 9.0365701,6.5215659 4.906754,14.49097 1.3948129,20.704031 Z"
       style="fill:#9f978d;fill-opacity:1;stroke:none;stroke-width:0.26458332px;stroke-linecap:butt;stroke-linejoin:miter;stroke-opacity:1" />
    <path
       inkscape:connector-curvature="0"
       id="path831"
       d="M 0.55795957,20.476529 35.489073,27.168385 34.931111,30 -1.1457491e-6,23.308144 Z"
       style="fill:#877d70;stroke:none;stroke-width:0.26458332px;stroke-linecap:butt;stroke-linejoin:miter;stroke-opacity:1;fill-opacity:1" />
    <path
       sodipodi:nodetypes="ccccc"
       inkscape:connector-curvature="0"
       id="path835"
       d="m 29.005455,12.600633 c 0.362432,0.374351 0.718083,0.766785 1.063824,1.185646 -3.665984,2.085308 -6.941169,5.831396 -9.805915,12.011918 l -1.655377,-0.317125 c 2.332383,-4.895603 5.249734,-9.650704 10.397468,-12.880439 z"
       style="fill:#877d70;fill-opacity:1;stroke:none;stroke-width:0.26458332px;stroke-linecap:butt;stroke-linejoin:miter;stroke-opacity:1" />
    <path
       sodipodi:nodetypes="ccccc"
       inkscape:connector-curvature="0"
       id="path833"
       d="m 10.595807,9.9624112 c 2.799491,4.0768228 4.690149,8.8411008 4.60036,14.8650478 l 1.655377,0.317126 c 0.04545,-5.565152 -1.249655,-10.945579 -4.788108,-15.8191 -0.497889,0.1775919 -0.985452,0.3964836 -1.467629,0.6369262 z"
       style="fill:#877d70;fill-opacity:1;stroke:none;stroke-width:0.26499999;stroke-linecap:butt;stroke-linejoin:miter;stroke-miterlimit:4;stroke-dasharray:none;stroke-opacity:1" />
  </g>
  <path
     sodipodi:nodetypes="ccccccccccccc"
     inkscape:connector-curvature="0"
     id="handler"
     d="M 4.5846516,0.10266548 C 3.6955672,4.7103355 2.9536559,9.2767155 7.1204621,12.466265 13.493636,6.2677955 27.799311,6.9285355 32.279502,17.238215 c -0.02673,-0.16421 5.420737,-0.62176 7.228795,-10.4415995 1.670071,7.5265995 0.880912,13.7136295 -5.173548,17.0325595 l 0.307104,3.1183 0.87407,0.21261 c -0.01666,1.367885 -0.377514,1.875287 -0.566963,2.8112 l -34.82105726,-6.7327 0.54334077,-2.78758 0.85044639,0.21262 1.5119048,-2.71671 C 0.7925094,14.250705 -2.7461389,11.613895 4.5846516,0.10266548 Z"
     style="fill:none;stroke:none;stroke-width:0.26458332px;stroke-linecap:butt;stroke-linejoin:miter;stroke-opacity:1" />
  <sodipodi:namedview
     id="base"
     pagecolor="#ffffff"
     bordercolor="#666666"
     borderopacity="1.0"
     inkscape:pageopacity="0.0"
     inkscape:pageshadow="2"
     inkscape:zoom="0.98994949"
     inkscape:cx="30.064621"
     inkscape:cy="145.25084"
     inkscape:document-units="mm"
     inkscape:current-layer="svg5925"
     showgrid="false"
     inkscape:window-width="1920"
     inkscape:window-height="1017"
     inkscape:window-x="-8"
     inkscape:window-y="-8"
     inkscape:window-maximized="1"
     inkscape:snap-global="false" />
  <metadata
     id="metadata5922">
    <rdf:RDF>
      <cc:Work
         rdf:about="">
        <dc:format>image/svg+xml</dc:format>
        <dc:type
           rdf:resource="http://purl.org/dc/dcmitype/StillImage" />
        <dc:title />
      </cc:Work>
    </rdf:RDF>
  </metadata>
  <g
     inkscape:label="Calque 1"
     inkscape:groupmode="layer"
     id="layer1"
     transform="translate(0,-267)" />
</svg>
