<?xml version="1.0" encoding="UTF-8" standalone="no"?>
<!-- Created with Inkscape (http://www.inkscape.org/) -->

<svg
   xmlns:dc="http://purl.org/dc/elements/1.1/"
   xmlns:cc="http://creativecommons.org/ns#"
   xmlns:rdf="http://www.w3.org/1999/02/22-rdf-syntax-ns#"
   xmlns:svg="http://www.w3.org/2000/svg"
   xmlns="http://www.w3.org/2000/svg"
   xmlns:sodipodi="http://sodipodi.sourceforge.net/DTD/sodipodi-0.dtd"
   xmlns:inkscape="http://www.inkscape.org/namespaces/inkscape"
   width="30.445mm"
   height="7mm"
   viewBox="0 0 30.445 7"
   version="1.1"
   id="svg6515"
   inkscape:version="0.92.4 (5da689c313, 2019-01-14)"
   sodipodi:docname="mustache.svg">
  <defs
     id="defs6509" />
  <sodipodi:namedview
     id="base"
     pagecolor="#ffffff"
     bordercolor="#666666"
     borderopacity="1.0"
     inkscape:pageopacity="0.0"
     inkscape:pageshadow="2"
     inkscape:zoom="5.6"
     inkscape:cx="124.24942"
     inkscape:cy="18.505424"
     inkscape:document-units="mm"
     inkscape:current-layer="layer1"
     showgrid="false"
     inkscape:window-width="1920"
     inkscape:window-height="1017"
     inkscape:window-x="1912"
     inkscape:window-y="-8"
     inkscape:window-maximized="1" />
  <metadata
     id="metadata6512">
    <rdf:RDF>
      <cc:Work
         rdf:about="">
        <dc:format>image/svg+xml</dc:format>
        <dc:type
           rdf:resource="http://purl.org/dc/dcmitype/StillImage" />
        <dc:title></dc:title>
      </cc:Work>
    </rdf:RDF>
  </metadata>
  <g
     inkscape:label="Calque 1"
     inkscape:groupmode="layer"
     id="layer1"
     transform="translate(0,-290)">
    <path
       id="path1516-0"
       style="fill:#3b2d29;fill-opacity:1;fill-rule:nonzero;stroke:none;stroke-width:0.08759862"
       d="m 2.9003686,291.25999 0.00197,0.003 z m 24.6388734,0.005 0.0049,-0.005 z m 2.524597,-0.29172 c -0.569392,-0.90664 -1.705543,-1.21323 -2.676139,-0.77786 -1.069584,0.56413 -1.602177,2.01299 -0.502805,2.88109 0.216275,0.15495 0.468659,0.24087 0.730577,0.24967 0.257521,0.003 0.489662,-0.0867 0.667482,-0.21032 0.180532,-0.12269 0.315361,-0.2891 0.398592,-0.47041 0.144512,-0.32939 0.110494,-0.70518 -0.144522,-0.97672 -0.09387,-0.1033 -0.197906,-0.17358 -0.29784,-0.21903 -0.203122,-0.0919 -0.383703,-0.0814 -0.488803,-0.043 l -0.109499,0.0624 -0.02485,0.0492 c 0.01735,0.0602 0.229429,0.01 0.454618,0.20858 0.143763,0.13066 0.212805,0.29432 0.198902,0.48266 l -0.078,0.17877 c -0.05512,0.0762 -0.135835,0.14892 -0.235651,0.19369 -0.09908,0.0455 -0.208584,0.0667 -0.308331,0.0472 -0.09288,-0.0223 -0.200637,-0.071 -0.288206,-0.15495 -0.118205,-0.13489 -0.192689,-0.27418 -0.2138,-0.45376 0.0049,-0.29871 0.146267,-0.56238 0.382815,-0.74545 0.08667,-0.0534 0.162143,-0.0911 0.261919,-0.13833 0.308341,-0.10085 0.611446,-0.0729 0.887376,0.0692 0.145498,0.10085 0.295216,0.24533 0.367916,0.38893 0.08667,0.18474 0.127888,0.36003 0.117466,0.55887 -0.09012,0.4923 -0.447637,0.86548 -0.863741,1.11778 -3.849098,2.20748 -6.971986,-5.24016 -13.076741,-1.71959 -6.1047447,-3.52057 -9.227633,3.92707 -13.0767209,1.71959 -0.4160742,-0.2523 -0.7734896,-0.62548 -0.8637309,-1.11778 -0.00996,-0.19889 0.030764,-0.37403 0.1174557,-0.55887 0.072769,-0.1437 0.2224873,-0.2882 0.3679165,-0.38893 0.2759498,-0.14208 0.5790449,-0.16984 0.8873955,-0.0692 0.099826,0.0474 0.1750594,0.0849 0.261889,0.13833 0.2366467,0.18226 0.37756,0.44674 0.3828254,0.74545 -0.022383,0.17953 -0.095645,0.31886 -0.2138005,0.45376 -0.087658,0.0842 -0.1954208,0.1323 -0.2882159,0.15495 -0.099816,0.0199 -0.2093239,-0.002 -0.3083211,-0.0472 -0.099825,-0.0447 -0.1805219,-0.11747 -0.2356508,-0.19369 l -0.077988,-0.17881 c -0.01479,-0.18847 0.055119,-0.35216 0.1989016,-0.48266 0.2252186,-0.19891 0.4370963,-0.14794 0.4546278,-0.20858 l -0.024848,-0.0492 -0.1094983,-0.0624 c -0.1050416,-0.0385 -0.2855833,-0.0492 -0.4888036,0.043 -0.099825,0.0455 -0.2041078,0.11568 -0.2978199,0.21903 -0.2549178,0.27154 -0.2890837,0.64733 -0.1445122,0.97672 0.083221,0.18127 0.2180107,0.34776 0.3985623,0.47041 0.1777907,0.12334 0.4099608,0.2128 0.6674817,0.21032 0.2619481,-0.01 0.5142234,-0.0947 0.7305776,-0.24967 1.0993816,-0.8681 0.5667787,-2.31696 -0.5027953,-2.88109 -0.9706064,-0.43537 -2.10674716,-0.12888 -2.67614863,0.77786 -0.59831185,0.98812 -0.46513892,2.13567 0.20758845,3.101 1.17030658,1.67489 4.15656098,3.98748 9.52636028,2.38617 2.277557,-0.67976 4.057573,-2.26089 5.106983,-3.26653 1.04944,1.00564 2.829456,2.58677 5.107013,3.26653 5.369809,1.60131 8.356044,-0.71128 9.526361,-2.38617 0.672747,-0.96533 0.80589,-2.11288 0.207588,-3.101"
       inkscape:connector-curvature="0"
       inkscape:export-filename="D:\mes projets\portfolio-max\src\components\portfolio\assets\mustache.png"
       inkscape:export-xdpi="300"
       inkscape:export-ydpi="300" />
  </g>
</svg>
