<?xml version="1.0" encoding="UTF-8" standalone="no"?>
<!-- Created with Inkscape (http://www.inkscape.org/) -->

<svg
   xmlns:dc="http://purl.org/dc/elements/1.1/"
   xmlns:cc="http://creativecommons.org/ns#"
   xmlns:rdf="http://www.w3.org/1999/02/22-rdf-syntax-ns#"
   xmlns:svg="http://www.w3.org/2000/svg"
   xmlns="http://www.w3.org/2000/svg"
   xmlns:sodipodi="http://sodipodi.sourceforge.net/DTD/sodipodi-0.dtd"
   xmlns:inkscape="http://www.inkscape.org/namespaces/inkscape"
   width="22mm"
   height="6.632mm"
   viewBox="0 0 22 6.632"
   version="1.1"
   id="svg7081"
   inkscape:version="0.92.4 (5da689c313, 2019-01-14)"
   sodipodi:docname="mustache2.svg">
  <defs
     id="defs7075" />
  <sodipodi:namedview
     id="base"
     pagecolor="#ffffff"
     bordercolor="#666666"
     borderopacity="1.0"
     inkscape:pageopacity="0.0"
     inkscape:pageshadow="2"
     inkscape:zoom="15.839192"
     inkscape:cx="11.333506"
     inkscape:cy="19.707446"
     inkscape:document-units="mm"
     inkscape:current-layer="svg7081"
     showgrid="false"
     inkscape:window-width="1920"
     inkscape:window-height="1017"
     inkscape:window-x="-8"
     inkscape:window-y="-8"
     inkscape:window-maximized="1" />
  <path
     id="path1530-5"
     style="fill:#3b2e29;fill-opacity:1;fill-rule:nonzero;stroke:none;stroke-width:0.08824296"
     d="m 20.857825,4.1179775 c -0.526583,0.063 -1.044826,-0.036 -1.539489,-0.33896 -1.070517,-0.65657 -2.00641,-1.79467 -3.04292,-2.57135 -1.031653,-0.77332996 -2.160437,-1.28399996 -3.305878,-1.19980996 -0.508553,0.0381 -1.499261,0.29524 -1.968263,1.04937996 C 10.532969,0.30302754 9.5422619,0.04600754 9.0337089,0.00785754 c -1.145421,-0.0843 -2.274205,0.42648 -3.305858,1.19980996 -1.036508,0.77668 -1.972422,1.91478 -3.04294,2.57135 -0.494663,0.30288 -1.012906,0.40178 -1.539489,0.33896 -0.123509,-0.0166 -1.185678,-0.36702 -1.142675,0.0359 0.136683,1.2694 1.40423,2.10335 2.07442,2.33455 1.144048,0.39507 2.311666,-0.0987 3.398134,-0.67233 1.073283,-0.56452 2.132686,-1.16612 3.236496,-1.55445 0.619545,-0.2189 1.7788451,-0.36255 2.2894781,-1.26158 0.510622,0.89903 1.67063,1.04268 2.290175,1.26158 1.10381,0.38833 2.163213,0.98993 3.235789,1.55445 1.087175,0.57354 2.254793,1.0674 3.398841,0.67233 0.67021,-0.23129 1.93773,-1.06515 2.07442,-2.33455 0.043,-0.40293 -1.019166,-0.0505 -1.142675,-0.0359"
     inkscape:connector-curvature="0"
     inkscape:export-filename="D:\mes projets\portfolio-max\src\components\portfolio\assets\mustache2.png"
     inkscape:export-xdpi="300"
     inkscape:export-ydpi="300"
     sodipodi:nodetypes="ccccccccccccccccccc" />
  <metadata
     id="metadata7078">
    <rdf:RDF>
      <cc:Work
         rdf:about="">
        <dc:format>image/svg+xml</dc:format>
        <dc:type
           rdf:resource="http://purl.org/dc/dcmitype/StillImage" />
        <dc:title />
      </cc:Work>
    </rdf:RDF>
  </metadata>
</svg>
